<?xml version="1.0" standalone="no"?>
<!DOCTYPE svg PUBLIC "-//W3C//DTD SVG 20010904//EN"
 "http://www.w3.org/TR/2001/REC-SVG-20010904/DTD/svg10.dtd">
<svg version="1.0" xmlns="http://www.w3.org/2000/svg"
 width="16.000000pt" height="16.000000pt" viewBox="0 0 16.000000 16.000000"
 preserveAspectRatio="xMidYMid meet">
<metadata>
Created by potrace 1.11, written by Peter Selinger 2001-2013
</metadata>
<g transform="translate(0.000000,16.000000) scale(0.004000,-0.004000)"
fill="#000000" stroke="none">
<path d="M0 2000 l0 -2000 2000 0 2000 0 0 2000 0 2000 -2000 0 -2000 0 0
-2000z m3321 1548 c30 -16 37 -26 34 -42 -14 -63 -515 -2642 -515 -2653 0 -10
32 -13 140 -13 l140 0 0 -70 0 -70 -46 -30 c-171 -108 -518 -179 -665 -137
-42 13 -66 28 -97 61 -48 52 -57 89 -48 189 5 51 400 2076 472 2418 l5 27
-118 21 c-65 12 -126 25 -135 27 -15 5 -18 17 -18 80 0 72 1 75 28 85 85 34
393 97 572 118 141 16 208 13 251 -11z m-1890 -949 c142 -14 285 -43 402 -80
110 -35 105 -28 82 -141 -18 -84 -29 -122 -92 -306 l-46 -133 -70 3 -70 3 -82
200 c-98 238 -87 228 -265 229 -105 1 -119 -1 -160 -24 -93 -52 -136 -161
-105 -267 30 -103 130 -183 417 -334 230 -121 297 -166 398 -268 131 -132 181
-259 167 -425 -11 -125 -52 -221 -131 -304 -165 -175 -416 -253 -765 -239
-220 9 -444 53 -601 117 -62 25 -65 28 -68 62 -7 82 74 323 160 474 l30 55 70
-3 69 -3 97 -214 c113 -250 111 -248 244 -258 154 -11 282 48 333 152 24 48
27 64 23 120 -4 45 -14 78 -32 110 -49 83 -187 180 -425 299 -282 142 -458
309 -512 488 -17 56 -21 88 -18 181 4 104 7 118 38 180 80 163 264 283 495
321 100 17 281 19 417 5z"/>
</g>
</svg>
